<?xml version="1.0" standalone="no"?>
<!DOCTYPE svg PUBLIC "-//W3C//DTD SVG 1.1//EN" "http://www.w3.org/Graphics/SVG/1.1/DTD/svg11.dtd" >
<svg xmlns="http://www.w3.org/2000/svg">
<metadata>
This is a custom SVG webfont generated by Font Squirrel.
Copyright   : Typeface data Copyright  199294 The Monotype Corporation Copyright 1994 Microsoft Corporation All rights reserved
</metadata>
<defs>
<font id="AbadiMTCondensedLightRegular" horiz-adv-x="832" >
<font-face units-per-em="2048" ascent="1638" descent="-410" />
<missing-glyph horiz-adv-x="469" />
<glyph unicode=" "  horiz-adv-x="469" />
<glyph unicode="&#x09;" horiz-adv-x="469" />
<glyph unicode="&#xa0;" horiz-adv-x="469" />
<glyph unicode="!" horiz-adv-x="427" d="M138 104q0 60 20.5 93.5t49.5 33.5q77 0 77 -126q0 -127 -74 -127q-73 0 -73 126zM144 1395h140l-20 -1046h-105z" />
<glyph unicode="&#x22;" horiz-adv-x="576" d="M80 1162v233h149v-233l-30 -272h-89zM345 1162v233h151v-233l-31 -272h-89z" />
<glyph unicode="#" horiz-adv-x="1365" d="M91 362v106h226l83 388h-309v104h331l87 411h103l-87 -411h440l84 411h105l-87 -411h206v-104h-224l-84 -388h308v-106h-328l-85 -409h-105l87 409h-442l-83 -409h-106l86 409h-206zM421 468h442l81 388h-441z" />
<glyph unicode="$" horiz-adv-x="896" d="M89 96v173q160 -145 328 -153v515q-328 73 -328 349q0 144 88.5 243t239.5 127v131h103v-131q146 -15 252 -96v-167q-111 113 -252 132v-484q330 -91 330 -348q0 -104 -49 -190.5t-119 -130t-162 -66.5v-148h-103v129q-172 8 -328 115zM228 980q0 -168 189 -222v456 q-189 -49 -189 -234zM520 128q190 64 190 247q0 167 -190 232v-479z" />
<glyph unicode="%" horiz-adv-x="1451" d="M71 1040q0 182 73 280t196 98q70 0 177 -62q125 -73 214 -73q109 0 169 52t109 158h114l-684 -1589h-115l567 1317q-86 -42 -154 -42q-73 0 -146 42q26 -90 26 -185q0 -156 -71 -257.5t-203 -101.5q-129 0 -200.5 98.5t-71.5 264.5zM195 1037q0 -120 42 -188t108 -68 q69 0 109 73.5t40 194.5q0 125 -41 194t-101 69q-78 0 -117.5 -75.5t-39.5 -199.5zM828 340q0 188 77 283t187 95q142 0 215 -102t73 -264q0 -183 -75.5 -278.5t-200.5 -95.5q-131 0 -203.5 102.5t-72.5 259.5zM955 339q0 -118 40.5 -186.5t107.5 -68.5q69 0 108 71t39 198 q0 133 -42.5 197t-99.5 64q-76 0 -114.5 -68.5t-38.5 -206.5z" />
<glyph unicode="&#x26;" horiz-adv-x="981" d="M67 392q0 136 65.5 245t227.5 220l-17 37q-66 146 -66 236q0 130 79 209t199 79q72 0 161 -34v-133q-74 51 -153 51q-73 0 -118.5 -46.5t-45.5 -124.5q0 -88 60 -203l281 -540q44 164 44 328v77h124q-4 -315 -98 -523l138 -270h-138l-70 148q-124 -170 -298 -170 q-162 0 -268.5 118t-106.5 296zM197 416q0 -143 70 -231.5t180 -88.5q136 0 239 149l-279 525q-113 -81 -161.5 -160.5t-48.5 -193.5z" />
<glyph unicode="'" horiz-adv-x="448" d="M150 1160v235h148v-235l-26 -267h-91z" />
<glyph unicode="(" horiz-adv-x="640" d="M170 480q0 481 243 915h114q-127 -219 -174.5 -424t-47.5 -504q0 -320 48.5 -492t173.5 -404h-114q-136 243 -189.5 453t-53.5 456z" />
<glyph unicode=")" horiz-adv-x="640" d="M113 1395h114q136 -243 189.5 -453t53.5 -456q0 -481 -243 -915h-114q128 219 175 424t47 504q0 320 -48 492t-174 404z" />
<glyph unicode="*" horiz-adv-x="896" d="M130 953l217 121l-217 127l48 83l221 -125v255h98v-255l221 125l48 -83l-224 -127l224 -121l-48 -89l-221 127v-254h-98v254l-221 -127z" />
<glyph unicode="+" horiz-adv-x="1365" d="M141 610v108h485v488h108v-488h489v-108h-489v-482h-108v482h-485z" />
<glyph unicode="," horiz-adv-x="427" d="M140 96q0 65 29.5 105t69.5 40t64.5 -43t24.5 -107q0 -81 -28 -169.5t-84 -184.5h-69q60 128 69 244q-38 19 -57 47.5t-19 67.5z" />
<glyph unicode="-" horiz-adv-x="576" d="M67 425v125h443v-125h-443z" />
<glyph unicode="." horiz-adv-x="427" d="M129 112q0 59 24.5 93t58.5 34q86 0 86 -122q0 -128 -84 -128q-41 0 -63 35t-22 88z" />
<glyph unicode="/" horiz-adv-x="576" d="M33 -163l401 1586h108l-403 -1586h-106z" />
<glyph unicode="0" horiz-adv-x="939" d="M66 682q0 218 58.5 378t151 228t188.5 68q136 0 233 -94.5t135.5 -270t38.5 -344.5q0 -306 -111.5 -487.5t-295.5 -181.5q-116 0 -213.5 85.5t-141 257t-43.5 361.5zM196 663q0 -269 71.5 -419t197.5 -150q80 0 148.5 68.5t98.5 224.5t30 299q0 270 -78.5 413t-186.5 143 q-139 0 -210 -154t-71 -425z" />
<glyph unicode="1" horiz-adv-x="939" d="M234 1008v96h52q86 0 136 47.5t50 141.5v40h103v-1333h-119v1008h-222z" />
<glyph unicode="2" horiz-adv-x="939" d="M104 0v74q0 159 37 253.5t91.5 148t296.5 265.5q83 73 118.5 132t35.5 130q0 105 -67.5 171t-160.5 66q-131 0 -286 -127v144q167 99 298 99q149 0 248 -91.5t99 -253.5q0 -120 -56.5 -201.5t-203.5 -201.5q-204 -168 -265 -257t-61 -178v-56h605v-117h-729z" />
<glyph unicode="3" horiz-adv-x="939" d="M157 62v149q125 -117 248 -117q116 0 195.5 80.5t79.5 204.5q0 118 -74 191.5t-208 73.5h-115v111h63q123 0 198.5 69.5t75.5 183.5q0 103 -60.5 168t-146.5 65q-128 0 -256 -118v148q143 85 263 85q143 0 236 -88t93 -238q0 -123 -60 -194.5t-173 -123.5 q147 -23 220.5 -104.5t73.5 -222.5q0 -172 -118.5 -289.5t-279.5 -117.5q-130 0 -255 84z" />
<glyph unicode="4" horiz-adv-x="939" d="M82 381v117l507 835h126v-835h168v-117h-168v-381h-126v381h-507zM202 498h387v638z" />
<glyph unicode="5" horiz-adv-x="939" d="M170 57v148q139 -111 250 -111q126 0 210 98.5t84 235.5q0 122 -70 210.5t-184 88.5q-50 0 -95 -22.5t-85 -68.5h-110v697h592v-116h-469v-465q48 47 101 70t112 23q141 0 239.5 -117.5t98.5 -289.5q0 -193 -121.5 -326.5t-295.5 -133.5q-113 0 -257 79z" />
<glyph unicode="6" horiz-adv-x="939" d="M101 650q0 220 60.5 378.5t158 243t224.5 84.5q108 0 224 -65v-144q-103 92 -203 92q-105 0 -187.5 -78.5t-116.5 -210.5t-34 -299v-43q70 104 145.5 155.5t156.5 51.5q141 0 232.5 -116t91.5 -289q0 -184 -103 -308t-253 -124q-118 0 -215 83t-139 246t-42 343zM239 444 q15 -155 91 -252.5t172 -97.5q95 0 158 86.5t63 222.5q0 130 -59.5 214t-150.5 84q-87 0 -155.5 -64t-118.5 -193z" />
<glyph unicode="7" horiz-adv-x="939" d="M105 1217v116h743v-116l-505 -1217h-134l511 1217h-615z" />
<glyph unicode="8" horiz-adv-x="939" d="M76 332q0 109 67.5 191t219.5 164q-223 134 -223 331q0 144 93.5 241t241.5 97q137 0 229 -83.5t92 -212.5q0 -94 -53 -171t-176 -156q164 -75 228 -162t64 -206q0 -175 -117.5 -281t-279.5 -106q-161 0 -273.5 102t-112.5 252zM206 337q0 -102 75.5 -171.5t184.5 -69.5 q112 0 188 74t76 183q0 202 -263 294q-261 -130 -261 -310zM269 1028q0 -167 198 -258q199 117 199 270q0 85 -56 143.5t-137 58.5q-85 0 -144.5 -61t-59.5 -153z" />
<glyph unicode="9" horiz-adv-x="939" d="M95 926q0 182 99.5 306t256.5 124q126 0 219 -86.5t134.5 -242t41.5 -338.5q0 -188 -53 -357.5t-160 -261.5t-236 -92q-101 0 -218 67v141q94 -90 205 -90q78 0 146 46t116.5 146t60 196.5t11.5 242.5q-132 -207 -300 -207q-139 0 -231 114.5t-92 291.5zM222 932 q0 -126 59 -212t153 -86q76 0 151.5 64.5t122.5 191.5q-25 159 -91.5 254.5t-170.5 95.5q-95 0 -159.5 -86.5t-64.5 -221.5z" />
<glyph unicode=":" horiz-adv-x="427" d="M129 112q0 59 24.5 93t58.5 34q86 0 86 -122q0 -128 -84 -128q-41 0 -63 35t-22 88zM129 832q0 60 24.5 93.5t58.5 33.5q86 0 86 -122q0 -128 -84 -128q-41 0 -63 35t-22 88z" />
<glyph unicode=";" horiz-adv-x="427" d="M140 96q0 65 29.5 105t69.5 40t64.5 -43t24.5 -107q0 -81 -28 -169.5t-84 -184.5h-69q60 128 69 244q-38 19 -57 47.5t-19 67.5zM140 835q0 53 23 90t59 37q90 0 90 -122q0 -56 -24 -92t-62 -36q-39 0 -62.5 35t-23.5 88z" />
<glyph unicode="&#x3c;" horiz-adv-x="1365" d="M144 619v97l1078 455v-118l-934 -385l934 -388v-117z" />
<glyph unicode="=" horiz-adv-x="1365" d="M144 380v108h1078v-108h-1078zM144 845v109h1078v-109h-1078z" />
<glyph unicode="&#x3e;" horiz-adv-x="1365" d="M144 163v117l934 386l-934 387v118l1078 -457v-97z" />
<glyph unicode="?" horiz-adv-x="853" d="M114 1166v143q176 109 329 109q150 0 258 -94.5t108 -250.5q0 -106 -50 -176.5t-206 -206.5q-78 -68 -103 -119t-25 -137v-84h-124v71q0 132 40 206t172 187q109 93 137.5 144t28.5 109q0 96 -70 161.5t-182 65.5q-126 0 -313 -128zM288 104q0 127 72 127q76 0 76 -124 q0 -129 -75 -129q-73 0 -73 126z" />
<glyph unicode="@" horiz-adv-x="1643" d="M24 456q0 421 268 691.5t683 270.5q181 0 325 -69t232 -203.5t88 -339.5q0 -212 -94 -371.5t-214.5 -234t-319.5 -102.5q-1 49 -1 77q0 60 5 129q-36 -76 -115.5 -136t-173.5 -60q-124 0 -195 95t-71 248q0 145 61.5 260t168.5 185t211 70q116 0 225 -100l48 83h106 l-99 -449q-38 -171 -38 -243q0 -6 1 -16q176 53 268 211t92 350q0 226 -137 356.5t-374 130.5q-257 0 -438 -112t-277.5 -298.5t-96.5 -443.5q0 -308 168 -495.5t479 -187.5q280 0 504 159l-19 -150q-85 -58 -236.5 -95t-279.5 -37q-209 0 -392 106.5t-272.5 297.5 t-89.5 423zM578 447q0 -90 46 -149t120 -59q49 0 104 31t102 91.5t67.5 114t38.5 153.5l22 121q-92 87 -187 87q-129 0 -221 -116t-92 -274z" />
<glyph unicode="A" horiz-adv-x="896" d="M-6 0l384 1395h134l389 -1395h-152l-118 482h-371l-117 -482h-149zM288 595h313l-158 630z" />
<glyph unicode="B" horiz-adv-x="1003" d="M124 0v1395h370q163 0 261.5 -80.5t98.5 -242.5q0 -116 -58 -198t-175 -131q165 -15 247.5 -99.5t82.5 -238.5q0 -118 -49 -202.5t-146.5 -143.5t-235.5 -59h-396zM259 671v-554h225q156 0 240.5 80t84.5 216t-91 197t-281 61h-178zM259 788h152q142 0 222.5 70t80.5 201 q0 109 -65.5 163.5t-196.5 54.5h-193v-489z" />
<glyph unicode="C" d="M69 701q0 318 126 517.5t342 199.5q124 0 251 -85v-162q-133 123 -246 123q-153 0 -243 -161t-90 -457q0 -248 86.5 -411t237.5 -163q116 0 255 127v-165q-141 -86 -263 -86q-144 0 -251 96t-156 265t-49 362z" />
<glyph unicode="D" horiz-adv-x="1003" d="M125 0v1395h322q244 0 364 -181.5t120 -527.5q0 -194 -54.5 -358t-168 -246t-261.5 -82h-322zM261 119h186q182 0 262 153t80 457q0 265 -83 404.5t-259 139.5h-186v-1154z" />
<glyph unicode="E" horiz-adv-x="896" d="M130 0v1395h677v-118h-542v-491h512v-116h-512v-554h542v-116h-677z" />
<glyph unicode="F" d="M129 0v1395h654v-120h-519v-521h488v-113h-488v-641h-135z" />
<glyph unicode="G" horiz-adv-x="917" d="M63 684q0 333 138 533.5t360 200.5q125 0 257 -86v-168q-137 129 -260 129q-162 0 -259.5 -167t-97.5 -453q0 -235 81.5 -402t208.5 -167q90 0 155 89.5t65 219.5v166h-257v119h392v-698h-86l-49 137q-47 -79 -106.5 -119t-131.5 -40q-114 0 -215 95t-148 263t-47 348z " />
<glyph unicode="H" horiz-adv-x="1024" d="M129 0v1395h135v-606h492v606h136v-1395h-136v671h-492v-671h-135z" />
<glyph unicode="I" horiz-adv-x="405" d="M133 0v1395h136v-1395h-136z" />
<glyph unicode="J" horiz-adv-x="469" d="M22 0v145q48 -31 94 -31t68 28.5t22 102.5v1150h136v-1177q0 -120 -50 -180t-150 -60q-67 0 -120 22z" />
<glyph unicode="K" horiz-adv-x="917" d="M133 0v1395h135v-664l446 664h161l-382 -542l420 -853h-158l-341 731l-146 -201v-530h-135z" />
<glyph unicode="L" horiz-adv-x="811" d="M135 0v1395h137v-1278h518v-117h-655z" />
<glyph unicode="M" horiz-adv-x="1195" d="M134 0v1395h164l301 -768l299 768h163v-1395h-123v890l1 229q0 43 -1 128q-36 -137 -96 -294l-243 -633l-206 532l-143 383q13 -451 13 -501v-734h-129z" />
<glyph unicode="N" horiz-adv-x="1024" d="M127 0v1395h138l413 -929l108 -245q-11 376 -11 389v785h121v-1395h-136l-400 895q-17 38 -64 162l-48 123q-3 -42 -3 -49l5 -108l1 -155l-3 -60v-808h-121z" />
<glyph unicode="O" horiz-adv-x="1045" d="M66 685q0 338 123 535.5t339 197.5q202 0 327 -195t125 -548q0 -317 -129 -507t-328 -190q-203 0 -330 187.5t-127 519.5zM207 677q0 -261 83 -416.5t230 -155.5q149 0 233 160t84 435q0 299 -88.5 446.5t-214.5 147.5q-168 0 -247.5 -170.5t-79.5 -446.5z" />
<glyph unicode="P" horiz-adv-x="960" d="M130 0v1395h385q182 0 286 -90.5t104 -268.5q0 -190 -118 -296t-312 -106h-208v-634h-137zM267 1275v-523h205q131 0 211 72.5t80 202.5q0 117 -66 182.5t-184 65.5h-246z" />
<glyph unicode="Q" horiz-adv-x="1045" d="M64 692q0 330 124 528t334 198q142 0 248 -95t156 -266.5t50 -376.5q0 -194 -57.5 -365.5t-198.5 -278.5q37 -98 75.5 -145.5t107.5 -47.5q47 0 93 26v-120q-62 -21 -117 -21q-107 0 -159.5 66t-105.5 196q-55 -12 -99 -12q-190 0 -320.5 180t-130.5 534zM203 668 q0 -270 88 -418t235 -148q28 0 41 6l-141 333h124l118 -282q165 144 165 535q0 272 -81 434.5t-232 162.5q-145 0 -231 -152.5t-86 -470.5z" />
<glyph unicode="R" horiz-adv-x="939" d="M135 0v1395h336q182 0 292.5 -83.5t110.5 -254.5q0 -129 -69.5 -223.5t-216.5 -142.5q101 -26 149.5 -89.5t73.5 -186.5l82 -415h-145l-55 336q-27 160 -90.5 231t-183.5 71h-151v-638h-133zM268 751h139q148 0 239 78.5t91 212.5q0 116 -65 173.5t-195 57.5h-209v-522z " />
<glyph unicode="S" horiz-adv-x="853" d="M59 1040q0 157 112.5 267.5t269.5 110.5q129 0 266 -96v-181q-87 81 -143.5 111t-119.5 30q-105 0 -174.5 -72t-69.5 -167q0 -96 62.5 -151.5t226.5 -122.5q99 -40 159.5 -81t101 -116t40.5 -171q0 -179 -124 -301t-294 -122q-148 0 -312 115v175q107 -87 173.5 -119.5 t135.5 -32.5q109 0 194.5 78t85.5 203q0 94 -56 157q-57 62 -217 122q-317 120 -317 364z" />
<glyph unicode="T" d="M24 1277v118h783v-118h-328v-1277h-133v1277h-322z" />
<glyph unicode="U" horiz-adv-x="960" d="M108 420v975h135v-1004q0 -135 63.5 -214t177.5 -79q109 0 174.5 76t65.5 217v1004h137v-1004q0 -189 -103.5 -301t-275.5 -112q-175 0 -274.5 120.5t-99.5 321.5z" />
<glyph unicode="V" horiz-adv-x="917" d="M3 1395h149l309 -1215l294 1215h150l-380 -1395h-135z" />
<glyph unicode="W" horiz-adv-x="1131" d="M-12 1395h150l129 -847q6 -38 22 -172q5 -47 21 -154l34 253q6 59 12 94l130 826h133l143 -847l46 -326l46 326l131 847h140l-253 -1395h-132l-148 929l-34 262q-32 -259 -55 -399l-129 -792h-130z" />
<glyph unicode="X" horiz-adv-x="853" d="M0 0l343 772l-285 623h160l199 -500l193 500h158l-275 -623l351 -772h-159l-268 648l-261 -648h-156z" />
<glyph unicode="Y" d="M8 1395h158l256 -617l245 617h156l-335 -756v-639h-137v639z" />
<glyph unicode="Z" horiz-adv-x="853" d="M5 0v118l602 1158h-551v119h707v-119l-608 -1158h693v-118h-843z" />
<glyph unicode="[" horiz-adv-x="683" d="M274 -441v1836h311v-78h-200v-1675h200v-83h-311z" />
<glyph unicode="\" horiz-adv-x="576" d="M21 1425h109l424 -1588h-106z" />
<glyph unicode="]" horiz-adv-x="683" d="M98 -363h201v1676h-201v82h311v-1836h-311v78z" />
<glyph unicode="^" horiz-adv-x="1344" d="M224 884l447 537l448 -537l-65 -54l-383 461l-384 -461z" />
<glyph unicode="_" horiz-adv-x="1024" d="M-12 -154h1048v-102h-1048v102z" />
<glyph unicode="`" horiz-adv-x="683" d="M179 1384h147l150 -293h-83z" />
<glyph unicode="a" d="M67 264q0 127 95.5 211t411.5 114v82q0 81 -52.5 133.5t-130.5 52.5q-111 0 -252 -110v143q153 85 257 85q150 0 227 -87q77 -88 77 -236v-503q0 -55 52 -55q27 0 54 15v-109q-48 -22 -98 -22q-130 0 -134 153q-49 -76 -109 -114.5t-130 -38.5q-114 0 -191 83t-77 203z M196 268q0 -76 48 -125.5t121 -49.5q91 0 150 76t59 195v127q-247 -30 -312.5 -84.5t-65.5 -138.5z" />
<glyph unicode="b" horiz-adv-x="875" d="M110 0v1416h126v-601q48 80 107 120t128 40q151 0 244.5 -142.5t93.5 -344.5q0 -219 -105 -364.5t-258 -145.5q-58 0 -100.5 22.5t-109.5 83.5l-33 -84h-93zM236 203q43 -54 88.5 -81.5t93.5 -27.5q114 0 186.5 108t72.5 282q0 157 -63 266t-168 109q-95 0 -152.5 -89.5 t-57.5 -209.5v-357z" />
<glyph unicode="c" horiz-adv-x="725" d="M67 466q0 213 113.5 361t293.5 148q100 0 204 -60v-139q-101 81 -195 81q-122 0 -205 -109t-83 -274q0 -150 75 -264t202 -114q93 0 206 82v-135q-112 -65 -218 -65q-175 0 -284 140.5t-109 347.5z" />
<glyph unicode="d" horiz-adv-x="875" d="M64 469q0 210 102.5 358t260.5 148q51 0 103.5 -23t106.5 -70v513h127v-1395h-127v134q-47 -78 -106.5 -117t-130.5 -39q-150 0 -243 147.5t-93 343.5zM193 470q0 -163 65 -270t166 -107q89 0 151 79t62 200v389q-39 48 -85 71.5t-100 23.5q-111 0 -185 -106t-74 -280z " />
<glyph unicode="e" d="M63 470q0 226 108.5 365.5t274.5 139.5q147 0 236 -112.5t89 -284.5v-62h-579v-49q0 -186 77.5 -281t181.5 -95q144 0 289 159v-150q-152 -122 -297 -122q-170 0 -275 136.5t-105 355.5zM205 623h432q-4 119 -61 178.5t-133 59.5q-77 0 -143.5 -59.5t-94.5 -178.5z" />
<glyph unicode="f" horiz-adv-x="427" d="M4 843v110h129v215q0 125 49 187.5t147 62.5q49 0 112 -23v-115q-50 22 -86 22q-43 0 -70 -27.5t-27 -71.5v-250h183v-110h-183v-843h-125v843h-129z" />
<glyph unicode="g" horiz-adv-x="875" d="M64 475q0 210 107 355t254 145q63 0 116 -27.5t96 -82.5l33 88h93v-1008q0 -193 -105 -302t-252 -109q-129 0 -278 102v149q145 -139 273 -139q106 0 171 83t65 216v205q-50 -75 -109 -112.5t-127 -37.5q-145 0 -241 140t-96 335zM196 474q0 -152 62 -257.5t167 -105.5 q91 0 151.5 83t60.5 215v340q-43 53 -90 79t-99 26q-110 0 -181 -107t-71 -273z" />
<glyph unicode="h" horiz-adv-x="853" d="M111 0v1395h126v-572q47 76 109 114t140 38q117 0 187.5 -82t70.5 -209v-684h-125v684q0 79 -45.5 126.5t-113.5 47.5q-94 0 -158.5 -81t-64.5 -188v-589h-126z" />
<glyph unicode="i" horiz-adv-x="341" d="M99 1258q0 117 75 117q74 0 74 -113q0 -119 -76 -119q-73 0 -73 115zM110 0v953h125v-953h-125z" />
<glyph unicode="j" horiz-adv-x="341" d="M-72 -324q42 -25 84 -25q49 0 73 33t24 99v1170h124v-1170q0 -124 -49.5 -186.5t-148.5 -62.5q-58 0 -107 22v120zM98 1258q0 117 73 117q74 0 74 -116q0 -115 -75 -115q-72 0 -72 114z" />
<glyph unicode="k" horiz-adv-x="747" d="M102 0v1395h126v-861l338 419h147l-297 -350l342 -603h-152l-268 513l-110 -132v-381h-126z" />
<glyph unicode="l" horiz-adv-x="341" d="M109 0v1395h126v-1395h-126z" />
<glyph unicode="m" horiz-adv-x="1237" d="M111 0v953h110l13 -122q41 72 96.5 108t126.5 36q79 0 131.5 -39.5t78.5 -119.5q39 80 96 119.5t131 39.5q109 0 169.5 -72.5t60.5 -191.5v-711h-126v711q0 68 -36.5 108t-91.5 40q-79 0 -135.5 -76t-56.5 -172v-611h-126v711q0 73 -30.5 109.5t-92.5 36.5 q-85 0 -140 -75.5t-55 -189.5v-592h-123z" />
<glyph unicode="n" horiz-adv-x="853" d="M111 0v953h113l12 -136q50 79 113.5 118.5t140.5 39.5q122 0 190 -82t68 -219v-674h-127v674q0 84 -44 134t-114 50q-95 0 -161 -83.5t-66 -192.5v-582h-125z" />
<glyph unicode="o" horiz-adv-x="875" d="M67 472q0 169 62 292t151.5 167t159.5 44q157 0 262 -136.5t105 -361.5q0 -130 -41.5 -245.5t-128.5 -184.5t-202 -69q-171 0 -269.5 141t-98.5 353zM197 462q0 -157 62 -263t174 -106q106 0 174.5 98.5t68.5 287.5q0 180 -67 279t-161 99q-125 0 -188 -106t-63 -289z " />
<glyph unicode="p" horiz-adv-x="875" d="M109 -444v1397h112l12 -138q51 80 111.5 120t129.5 40q153 0 242.5 -141.5t89.5 -347.5q0 -250 -115.5 -379t-253.5 -129q-54 0 -105 23t-99 69v-514h-124zM233 188q41 -47 87.5 -71t98.5 -24q113 0 185.5 107t72.5 279q0 158 -63.5 268.5t-168.5 110.5q-92 0 -152 -87.5 t-60 -201.5v-381z" />
<glyph unicode="q" horiz-adv-x="875" d="M67 461q0 218 106 366t253 148q59 0 112.5 -27.5t101.5 -82.5l32 88h94v-1397h-126v574q-53 -76 -111.5 -114t-122.5 -38q-153 0 -246 144t-93 339zM197 463q0 -163 63.5 -266.5t164.5 -103.5q92 0 153.5 82t61.5 211v366q-45 53 -93 79t-99 26q-109 0 -180 -110 t-71 -284z" />
<glyph unicode="r" horiz-adv-x="576" d="M121 0v953h112l11 -141q45 82 100.5 122.5t121.5 40.5q49 0 99 -22v-118q-58 22 -98 22q-95 0 -159 -89t-64 -204v-564h-123z" />
<glyph unicode="s" horiz-adv-x="747" d="M67 698q0 118 93 197.5t230 79.5q110 0 250 -78v-142q-119 104 -244 104q-86 0 -141.5 -46t-55.5 -111q0 -55 50 -90q49 -36 163 -68q280 -78 280 -266q0 -127 -102.5 -213.5t-248.5 -86.5q-135 0 -272 87v143q140 -114 267 -114q98 0 162 49.5t64 125.5q0 55 -42.5 92 t-164.5 73q-150 45 -219 103t-69 161z" />
<glyph unicode="t" horiz-adv-x="491" d="M14 843v110h131l10 284h113v-284h181v-110h-181v-666q0 -42 22 -63.5t66 -21.5q40 0 93 32v-124q-66 -22 -129 -22q-77 0 -126 45t-49 136v684h-131z" />
<glyph unicode="u" horiz-adv-x="853" d="M103 283v670h124v-670q0 -95 40 -142.5t120 -47.5q100 0 163.5 84.5t63.5 217.5v558h125v-953h-125v131q-53 -76 -116 -114.5t-136 -38.5q-122 0 -190.5 83t-68.5 222z" />
<glyph unicode="v" horiz-adv-x="725" d="M1 953h137l225 -795l218 795h135l-295 -953h-122z" />
<glyph unicode="w" horiz-adv-x="1003" d="M7 953h132l100 -490l62 -334q19 120 56 318l91 506h115l118 -538q15 -68 32 -166q9 -51 20 -106q25 169 48 291l95 519h124l-219 -953h-114l-114 535q-3 10 -10 39q-23 96 -40 221q-12 -115 -38 -246l-108 -549h-118z" />
<glyph unicode="x" horiz-adv-x="704" d="M3 0l271 515l-231 438h151l150 -342l152 342h144l-227 -438l278 -515h-153l-194 421l-198 -421h-143z" />
<glyph unicode="y" horiz-adv-x="725" d="M9 953h139l235 -798l205 798h135l-320 -1111q-51 -178 -105 -243t-156 -65q-36 0 -77 22v117q42 -13 69 -13q56 0 90 49.5t78 203.5l21 76z" />
<glyph unicode="z" horiz-adv-x="768" d="M54 0v117l494 715h-464v121h617v-121l-498 -715h528v-117h-677z" />
<glyph unicode="{" horiz-adv-x="683" d="M100 390v131q62 3 103.5 32t65.5 96t24 203v135q0 162 17.5 240.5t82 132.5t150.5 54l11 3q27 0 31 -3v-110q-98 -4 -130 -31t-40.5 -104.5t-8.5 -288.5q0 -151 -22.5 -223.5t-62 -118.5t-113.5 -82q106 -45 152.5 -136.5t46.5 -283.5l-1 -180q0 -171 34.5 -206.5 t144.5 -42.5v-112h-27q-130 0 -197.5 77t-67.5 270v210q0 199 -46.5 265.5t-146.5 72.5z" />
<glyph unicode="|" horiz-adv-x="1045" d="M468 -466v1884h109v-1884h-109z" />
<glyph unicode="}" horiz-adv-x="683" d="M97 1309v109h28q129 0 196.5 -76t67.5 -268v-210q0 -191 44.5 -263.5t148.5 -74.5v-131q-62 -3 -103 -31.5t-65.5 -96t-24.5 -203.5v-135q0 -163 -17.5 -242.5t-82 -133.5t-150.5 -54h-27q1 0 -15 0v113q98 4 130 31t41 104.5t9 288.5q0 151 22 224t61.5 118.5 t113.5 81.5q-105 45 -151.5 136.5t-46.5 283.5v180q0 130 -22.5 187.5t-156.5 61.5z" />
<glyph unicode="~" horiz-adv-x="1344" d="M135 559v121q155 122 293 122q83 0 287 -95q144 -67 212 -67q122 0 282 139v-123q-161 -125 -284 -125q-90 0 -286 92q-152 71 -218 71q-120 0 -286 -135z" />
<glyph unicode="&#xa1;" horiz-adv-x="427" d="M142 850q0 127 74 127q73 0 73 -126q0 -60 -20 -93.5t-50 -33.5q-77 0 -77 126zM144 -441l19 1047h105l15 -1047h-139z" />
<glyph unicode="&#xa2;" horiz-adv-x="768" d="M95 661q0 185 98.5 329.5t264.5 170.5v171h102v-171q83 -13 148 -52v-130q-72 53 -148 65v-753q82 17 148 67v-137q-71 -34 -148 -50v-171h-102v171q-182 31 -272.5 172.5t-90.5 317.5zM227 658q0 -158 63 -251.5t168 -119.5v754q-231 -79 -231 -383z" />
<glyph unicode="&#xa3;" horiz-adv-x="917" d="M61 0q42 74 96 152q121 178 148.5 261.5t28.5 195.5h-234v109h206q-9 24 -32 73q-67 146 -67 228q0 145 104.5 241t257.5 96q136 0 271 -85v-147q-140 117 -261 117q-104 0 -174 -62t-70 -157q0 -72 68 -216q24 -50 38 -88h271v-109h-253q-6 -115 -41.5 -192t-129.5 -215 q28 20 53.5 30t48.5 10q63 0 174 -77q100 -69 150 -69q42 0 112 51l14 10v-134q-76 -45 -140 -45q-76 0 -195 81q-102 69 -160 69q-40 0 -73.5 -28t-75.5 -100h-135z" />
<glyph unicode="&#xa4;" horiz-adv-x="1387" d="M216 265l126 124q-96 133 -96 277q0 148 96 278l-126 125l75 76l126 -126q67 48 136 72t139 24q77 0 138.5 -20t141.5 -76l126 126l73 -76l-125 -125q96 -134 96 -277q0 -78 -20.5 -139.5t-75.5 -138.5l125 -124l-73 -75l-126 125q-66 -48 -135 -72t-142 -24 q-149 0 -278 96l-126 -125zM352 675q0 -155 102.5 -252.5t239.5 -97.5q141 0 241 100.5t100 241.5q0 140 -100 240.5t-241 100.5q-147 0 -244.5 -103.5t-97.5 -229.5z" />
<glyph unicode="&#xa5;" d="M9 298v91h341v252l-20 46h-321v90h280l-280 618h156l256 -618l245 618h158l-277 -618h277v-90h-317l-20 -46v-252h337v-91h-337v-298h-137v298h-341z" />
<glyph unicode="&#xa6;" horiz-adv-x="1045" d="M468 255h109v-721h-109v721zM468 700v718h109v-718h-109z" />
<glyph unicode="&#xa7;" horiz-adv-x="853" d="M72 619q0 82 33 145t132 138q-78 106 -78 205q0 111 79.5 188t188.5 77q65 0 125.5 -31t103 -101.5t49.5 -195.5h-109q-25 235 -172 235q-68 0 -112 -50.5t-44 -115.5q0 -62 42 -119t178 -166q182 -145 235.5 -223.5t53.5 -181.5q0 -85 -37 -148t-124 -118 q42 -51 63 -104t21 -108q0 -129 -81.5 -215t-203.5 -86q-115 0 -197 78t-97 256h116q26 -239 177 -239q78 0 127.5 55.5t49.5 134.5q0 42 -14 80t-43 71q-58 67 -200 172q-144 107 -203 188.5t-59 178.5zM175 631q0 -84 60 -148.5t188 -160.5q53 -39 144 -113q99 96 99 209 q0 76 -48 137t-233 214l-94 78q-116 -114 -116 -216z" />
<glyph unicode="&#xa8;" horiz-adv-x="683" d="M118 1233q0 130 73 130q74 0 74 -126q0 -127 -75 -127q-72 0 -72 123zM415 1237q0 124 74 124q75 0 75 -124q0 -128 -73 -128q-76 0 -76 128z" />
<glyph unicode="&#xa9;" horiz-adv-x="1643" d="M58 656q0 314 224.5 538t539.5 224q217 0 400 -113.5t273.5 -290.5t90.5 -338q0 -348 -230 -565t-534 -217q-315 0 -539.5 223.5t-224.5 538.5zM151 657q0 -276 197 -473t474 -197q288 0 479.5 203.5t191.5 449.5q0 307 -202.5 497.5t-468.5 190.5q-278 0 -474.5 -196.5 t-196.5 -474.5zM443 660q0 160 101.5 287t281.5 127q116 0 192.5 -53.5t135.5 -167.5l-98 -27q-71 166 -223 166q-113 0 -197 -82.5t-84 -242.5q0 -151 71 -254t198 -103q93 0 149.5 47.5t100.5 157.5l90 -31q-48 -150 -141 -206.5t-195 -56.5q-103 0 -192.5 55.5 t-139.5 161.5t-50 222z" />
<glyph unicode="&#xaa;" horiz-adv-x="555" d="M37 939q0 108 82.5 157t254.5 68v38q0 53 -32.5 85t-79.5 32q-64 0 -178 -86v125q100 60 183 60q100 0 156 -57t56 -145v-351q0 -29 23 -29q12 0 48 20v-101q-47 -13 -74 -13q-84 0 -100 74q-31 -39 -68.5 -59t-81.5 -20q-76 0 -132.5 57.5t-56.5 144.5zM147 941 q0 -49 29.5 -77t69.5 -28q57 0 92.5 48t35.5 113v79q-134 -21 -180.5 -47.5t-46.5 -87.5z" />
<glyph unicode="&#xab;" horiz-adv-x="597" d="M93 474l108 315h102l-102 -315l102 -317h-102zM347 474l107 315h103l-103 -315l103 -317h-103z" />
<glyph unicode="&#xac;" horiz-adv-x="1365" d="M142 856v108h1080v-595h-106v487h-974z" />
<glyph unicode="&#xad;" horiz-adv-x="576" d="M67 425v125h443v-125h-443z" />
<glyph unicode="&#xae;" horiz-adv-x="1643" d="M58 656q0 314 224.5 538t539.5 224q217 0 400 -113.5t273.5 -290.5t90.5 -338q0 -348 -230 -565t-534 -217q-315 0 -539.5 223.5t-224.5 538.5zM151 657q0 -276 197 -473t474 -197q288 0 479.5 203.5t191.5 449.5q0 307 -202.5 497.5t-468.5 190.5q-278 0 -474.5 -196.5 t-196.5 -474.5zM512 247v804h334q121 0 197 -54t76 -159q0 -79 -52 -145t-186 -83q88 -34 128.5 -87t138.5 -276h-120q-97 220 -157.5 284t-211.5 64h-45v-348h-102zM614 680h132q160 0 207.5 40t47.5 113q0 76 -52.5 106t-186.5 30h-148v-289z" />
<glyph unicode="&#xaf;" horiz-adv-x="1024" d="M-12 1549v102h1048v-102h-1048z" />
<glyph unicode="&#xb0;" horiz-adv-x="811" d="M118 1132q0 117 84.5 201.5t203.5 84.5q127 0 207.5 -87t80.5 -191q0 -127 -86 -209t-202 -82q-118 0 -203 82t-85 201zM201 1135q0 -85 60 -144.5t145 -59.5q87 0 145.5 62t58.5 137q0 91 -60.5 150t-143.5 59q-85 0 -145 -60t-60 -144z" />
<glyph unicode="&#xb1;" horiz-adv-x="1365" d="M142 0v108h1082v-108h-1082zM142 767v108h485v488h108v-488h489v-108h-489v-485h-108v485h-485z" />
<glyph unicode="&#xb2;" horiz-adv-x="640" d="M107 605v103q0 98 39.5 158t159.5 156q84 67 108 100t24 68q0 46 -36.5 78.5t-92.5 32.5q-57 0 -150 -59q-11 -8 -15 -10v118q91 52 181 52q100 0 162.5 -55.5t62.5 -147.5q0 -76 -40.5 -126.5t-162.5 -148.5q-130 -103 -130 -184v-32h348v-103h-458z" />
<glyph unicode="&#xb3;" horiz-adv-x="640" d="M125 634v125q76 -64 153 -64q65 0 108 41.5t43 104.5q0 60 -41 93.5t-111 33.5h-77v95h36q73 0 115 34t42 91q0 49 -32 80.5t-80 31.5q-80 0 -156 -66v122q88 45 168 45q89 0 150 -49t61 -145q0 -65 -31 -104t-99 -77q84 -23 126 -71t42 -121q0 -104 -75 -173t-182 -69 q-80 0 -160 42z" />
<glyph unicode="&#xb4;" horiz-adv-x="683" d="M225 1090l150 293h149l-215 -293h-84z" />
<glyph unicode="&#xb5;" horiz-adv-x="917" d="M139 -408v1471h119v-759q0 -90 10 -128t46.5 -67t92.5 -29q76 0 137.5 46.5t87 118t25.5 224.5v594h121v-1063h-121v104q-59 -65 -120 -97.5t-125 -32.5q-31 0 -69.5 9t-84.5 26v-417h-119z" />
<glyph unicode="&#xb6;" horiz-adv-x="1323" d="M97 977q0 194 132.5 306t346.5 112h691v-130h-196v-1709h-131v1709h-263v-1709h-131v1002q-129 0 -220.5 39.5t-160 140.5t-68.5 239z" />
<glyph unicode="&#xb8;" horiz-adv-x="683" d="M331 -333q73 -40 136 -40q53 0 91 23.5t38 59.5q0 34 -30.5 52t-65.5 18h-111v262h100v-165h49q74 0 123.5 -45t49.5 -110q0 -79 -67.5 -133t-165.5 -54q-73 0 -147 26v106z" />
<glyph unicode="&#xb9;" horiz-adv-x="640" d="M190 1151v90h40q41 0 72.5 28t31.5 73v53h94v-788h-106v544h-132z" />
<glyph unicode="&#xba;" horiz-adv-x="576" d="M31 1078q0 148 71.5 244t188.5 96q104 0 179.5 -91t75.5 -248q0 -152 -73 -247t-185 -95q-115 0 -186 96t-71 245zM141 1068q0 -99 39 -165.5t108 -66.5t107.5 66t38.5 185q0 101 -38 166.5t-100 65.5q-75 0 -115 -67.5t-40 -183.5z" />
<glyph unicode="&#xbb;" horiz-adv-x="597" d="M41 157l102 315l-102 317h102l108 -317l-108 -315h-102zM295 157l102 315l-102 317h102l108 -317l-108 -315h-102z" />
<glyph unicode="&#xbc;" horiz-adv-x="1493" d="M197 1152v90h40q41 0 72.5 28t31.5 73v52h94v-787h-106v544h-132zM294 -88l823 1483h124l-835 -1483h-112zM935 156v100l306 462h107v-462h99v-100h-99v-226h-107v226h-306zM1040 256h201v286z" />
<glyph unicode="&#xbd;" horiz-adv-x="1493" d="M197 1152v90h40q41 0 72.5 28t31.5 73v52h94v-787h-106v544h-132zM294 -88l823 1483h124l-835 -1483h-112zM960 33q0 99 39.5 158.5t160.5 156.5q85 68 108 101t23 67q0 45 -36.5 77.5t-92.5 32.5q-57 0 -149 -59q-12 -8 -16 -10v118q91 52 183 52q100 0 161.5 -56.5 t61.5 -146.5q0 -75 -40 -126t-163 -148q-130 -103 -130 -184v-33h348v-102h-458v102z" />
<glyph unicode="&#xbe;" horiz-adv-x="1493" d="M133 635v126q76 -64 153 -64q65 0 108 41.5t43 103.5q0 60 -41 93.5t-111 33.5h-77v95h36q73 0 115 34.5t42 91.5q0 49 -32 80.5t-80 31.5q-78 0 -156 -67v123q88 45 169 45q94 0 152 -52t58 -143q0 -56 -32.5 -101t-97.5 -79q84 -23 126 -71t42 -121q0 -105 -75 -173.5 t-182 -68.5q-76 0 -160 41zM294 -88l823 1483h124l-835 -1483h-112zM936 156v100l305 462h107v-462h100v-100h-100v-226h-107v226h-305zM1040 256h201v286z" />
<glyph unicode="&#xbf;" horiz-adv-x="853" d="M44 -121q0 105 50.5 175.5t206.5 207.5q77 67 102 118.5t25 136.5v84h125v-71q0 -132 -40 -206t-172 -186q-110 -94 -138.5 -145t-28.5 -109q0 -96 70 -161.5t182 -65.5q74 0 140 28.5t173 100.5v-143q-176 -109 -328 -109q-156 0 -261.5 97t-105.5 248zM418 844 q0 129 74 129q73 0 73 -126q0 -127 -72 -127q-75 0 -75 124z" />
<glyph unicode="&#xc0;" horiz-adv-x="896" d="M-6 0l384 1395h134l389 -1395h-152l-118 482h-371l-117 -482h-149zM269 1786h147l150 -293h-83zM288 595h313l-158 630z" />
<glyph unicode="&#xc1;" horiz-adv-x="896" d="M-6 0l384 1395h134l389 -1395h-152l-118 482h-371l-117 -482h-149zM288 595h313l-158 630zM364 1492l150 293h149l-215 -293h-84z" />
<glyph unicode="&#xc2;" horiz-adv-x="896" d="M-6 0l384 1395h134l389 -1395h-152l-118 482h-371l-117 -482h-149zM224 1492l147 293h192l148 -293h-86l-159 222l-161 -222h-81zM288 595h313l-158 630z" />
<glyph unicode="&#xc3;" horiz-adv-x="896" d="M-6 0l384 1395h134l389 -1395h-152l-118 482h-371l-117 -482h-149zM190 1537q5 217 158 217q74 0 140 -76q45 -52 79 -52q60 0 60 118h95q0 -221 -154 -221q-70 0 -144 79q-48 51 -78 51q-61 0 -61 -116h-95zM288 595h313l-158 630z" />
<glyph unicode="&#xc4;" horiz-adv-x="896" d="M-6 0l384 1395h134l389 -1395h-152l-118 482h-371l-117 -482h-149zM233 1635q0 130 73 130q74 0 74 -126q0 -127 -75 -127q-72 0 -72 123zM288 595h313l-158 630zM530 1639q0 124 74 124q75 0 75 -124q0 -128 -73 -128q-76 0 -76 128z" />
<glyph unicode="&#xc5;" horiz-adv-x="896" d="M-6 0l370 1343q-34 24 -51.5 55.5t-17.5 70.5q0 61 43.5 104.5t105.5 43.5q61 0 104.5 -43.5t43.5 -104.5q0 -38 -16.5 -69t-49.5 -55l375 -1345h-152l-118 482h-371l-117 -482h-149zM288 595h313l-158 630zM369 1470q0 -31 21.5 -53t53.5 -22q31 0 53 22t22 53t-22 53 t-53 22q-30 0 -52.5 -21.5t-22.5 -53.5z" />
<glyph unicode="&#xc6;" horiz-adv-x="1472" d="M-8 0l507 1395h885v-114h-540v-495h508v-115h-508v-553h540v-118h-673v671h-336l-234 -671h-149zM415 786h296v495h-123z" />
<glyph unicode="&#xc7;" d="M69 701q0 192 55.5 364.5t166 262.5t246.5 90q128 0 251 -85v-162q-133 123 -246 123q-153 0 -243 -161t-90 -457q0 -248 86.5 -411t237.5 -163q116 0 255 127v-165q-147 -87 -243 -87q-6 0 -17 1v-101h49q75 0 124 -44.5t49 -110.5q0 -79 -67 -133t-166 -54 q-73 0 -147 26v106q73 -40 136 -40q51 0 90 23t39 60q0 34 -30.5 52t-65.5 18h-110v210q-187 53 -273.5 249t-86.5 462z" />
<glyph unicode="&#xc8;" horiz-adv-x="896" d="M130 0v1395h677v-118h-542v-491h512v-116h-512v-554h542v-116h-677zM286 1786h147l150 -293h-83z" />
<glyph unicode="&#xc9;" horiz-adv-x="896" d="M130 0v1395h677v-118h-542v-491h512v-116h-512v-554h542v-116h-677zM356 1492l150 293h149l-215 -293h-84z" />
<glyph unicode="&#xca;" horiz-adv-x="896" d="M130 0v1395h677v-118h-542v-491h512v-116h-512v-554h542v-116h-677zM229 1492l147 293h192l148 -293h-86l-159 222l-161 -222h-81z" />
<glyph unicode="&#xcb;" horiz-adv-x="896" d="M130 0v1395h677v-118h-542v-491h512v-116h-512v-554h542v-116h-677zM249 1635q0 130 73 130q74 0 74 -126q0 -127 -75 -127q-72 0 -72 123zM546 1639q0 124 74 124q75 0 75 -124q0 -128 -73 -128q-76 0 -76 128z" />
<glyph unicode="&#xcc;" horiz-adv-x="405" d="M22 1786h147l150 -293h-83zM133 0v1395h136v-1395h-136z" />
<glyph unicode="&#xcd;" horiz-adv-x="405" d="M111 1492l150 293h149l-215 -293h-84zM133 0v1395h136v-1395h-136z" />
<glyph unicode="&#xce;" horiz-adv-x="405" d="M-41 1492l147 293h192l148 -293h-86l-159 222l-161 -222h-81zM133 0v1395h136v-1395h-136z" />
<glyph unicode="&#xcf;" horiz-adv-x="405" d="M-20 1635q0 130 73 130q74 0 74 -126q0 -127 -75 -127q-72 0 -72 123zM133 0v1395h136v-1395h-136zM277 1639q0 124 74 124q75 0 75 -124q0 -128 -73 -128q-76 0 -76 128z" />
<glyph unicode="&#xd0;" horiz-adv-x="1003" d="M-11 637v120h136v638h322q245 0 365 -182t120 -528q0 -317 -126 -501t-359 -184h-322v637h-136zM262 120h185q183 0 263 153t80 457q0 265 -83.5 404.5t-259.5 139.5h-185v-517h264v-120h-264v-517z" />
<glyph unicode="&#xd1;" horiz-adv-x="1024" d="M127 0v1395h138l413 -929l108 -245q-11 376 -11 389v785h121v-1395h-136l-400 895q-17 38 -64 162l-48 123q-3 -42 -3 -49l5 -108l1 -155l-3 -60v-808h-121zM255 1537q5 217 158 217q74 0 140 -76q45 -52 79 -52q60 0 60 118h95q0 -221 -154 -221q-70 0 -144 79 q-48 51 -78 51q-61 0 -61 -116h-95z" />
<glyph unicode="&#xd2;" horiz-adv-x="1045" d="M66 685q0 338 123 535.5t339 197.5q202 0 327 -195t125 -548q0 -317 -129 -507t-328 -190q-203 0 -330 187.5t-127 519.5zM207 677q0 -261 83 -416.5t230 -155.5q149 0 233 160t84 435q0 299 -88.5 446.5t-214.5 147.5q-168 0 -247.5 -170.5t-79.5 -446.5zM328 1786h147 l150 -293h-83z" />
<glyph unicode="&#xd3;" horiz-adv-x="1045" d="M66 685q0 338 123 535.5t339 197.5q202 0 327 -195t125 -548q0 -317 -129 -507t-328 -190q-203 0 -330 187.5t-127 519.5zM207 677q0 -261 83 -416.5t230 -155.5q149 0 233 160t84 435q0 299 -88.5 446.5t-214.5 147.5q-168 0 -247.5 -170.5t-79.5 -446.5zM430 1492 l150 293h149l-215 -293h-84z" />
<glyph unicode="&#xd4;" horiz-adv-x="1045" d="M66 685q0 338 123 535.5t339 197.5q202 0 327 -195t125 -548q0 -317 -129 -507t-328 -190q-203 0 -330 187.5t-127 519.5zM207 677q0 -261 83 -416.5t230 -155.5q149 0 233 160t84 435q0 299 -88.5 446.5t-214.5 147.5q-168 0 -247.5 -170.5t-79.5 -446.5zM278 1492 l147 293h192l148 -293h-86l-159 222l-161 -222h-81z" />
<glyph unicode="&#xd5;" horiz-adv-x="1045" d="M66 685q0 338 123 535.5t339 197.5q202 0 327 -195t125 -548q0 -317 -129 -507t-328 -190q-203 0 -330 187.5t-127 519.5zM207 677q0 -261 83 -416.5t230 -155.5q149 0 233 160t84 435q0 299 -88.5 446.5t-214.5 147.5q-168 0 -247.5 -170.5t-79.5 -446.5zM256 1537 q5 217 158 217q74 0 140 -76q45 -52 79 -52q60 0 60 118h95q0 -221 -154 -221q-70 0 -144 79q-48 51 -78 51q-61 0 -61 -116h-95z" />
<glyph unicode="&#xd6;" horiz-adv-x="1045" d="M66 685q0 338 123 535.5t339 197.5q202 0 327 -195t125 -548q0 -317 -129 -507t-328 -190q-203 0 -330 187.5t-127 519.5zM207 677q0 -261 83 -416.5t230 -155.5q149 0 233 160t84 435q0 299 -88.5 446.5t-214.5 147.5q-168 0 -247.5 -170.5t-79.5 -446.5zM299 1635 q0 130 73 130q74 0 74 -126q0 -127 -75 -127q-72 0 -72 123zM596 1639q0 124 74 124q75 0 75 -124q0 -128 -73 -128q-76 0 -76 128z" />
<glyph unicode="&#xd7;" horiz-adv-x="1365" d="M191 250l416 414l-416 419l76 76l417 -419l415 419l76 -76l-415 -419l415 -414l-76 -75l-415 413l-417 -413z" />
<glyph unicode="&#xd8;" horiz-adv-x="1045" d="M66 686q0 340 124.5 536t321.5 196q119 0 214 -60l52 133h115l-82 -208q169 -201 169 -608q0 -212 -57 -364t-160 -242.5t-240 -90.5q-107 0 -204 61l-54 -135h-110l81 206q-64 67 -117 211t-53 365zM207 677q0 -262 86 -422l385 980q-69 59 -152 59 q-154 0 -236.5 -164.5t-82.5 -452.5zM367 161q62 -56 155 -56q149 0 232 161t83 434q0 272 -83 439z" />
<glyph unicode="&#xd9;" horiz-adv-x="960" d="M108 420v975h135v-1004q0 -135 63.5 -214t177.5 -79q109 0 174.5 76t65.5 217v1004h137v-1004q0 -189 -103.5 -301t-275.5 -112q-175 0 -274.5 120.5t-99.5 321.5zM293 1786h147l150 -293h-83z" />
<glyph unicode="&#xda;" horiz-adv-x="960" d="M108 420v975h135v-1004q0 -135 63.5 -214t177.5 -79q109 0 174.5 76t65.5 217v1004h137v-1004q0 -189 -103.5 -301t-275.5 -112q-175 0 -274.5 120.5t-99.5 321.5zM388 1492l150 293h149l-215 -293h-84z" />
<glyph unicode="&#xdb;" horiz-adv-x="960" d="M108 420v975h135v-1004q0 -135 63.5 -214t177.5 -79q109 0 174.5 76t65.5 217v1004h137v-1004q0 -189 -103.5 -301t-275.5 -112q-175 0 -274.5 120.5t-99.5 321.5zM236 1492l147 293h192l148 -293h-86l-159 222l-161 -222h-81z" />
<glyph unicode="&#xdc;" horiz-adv-x="960" d="M108 420v975h135v-1004q0 -135 63.5 -214t177.5 -79q109 0 174.5 76t65.5 217v1004h137v-1004q0 -189 -103.5 -301t-275.5 -112q-175 0 -274.5 120.5t-99.5 321.5zM257 1635q0 130 73 130q74 0 74 -126q0 -127 -75 -127q-72 0 -72 123zM554 1639q0 124 74 124 q75 0 75 -124q0 -128 -73 -128q-76 0 -76 128z" />
<glyph unicode="&#xdd;" d="M8 1395h158l256 -617l245 617h156l-335 -756v-639h-137v639zM332 1492l150 293h149l-215 -293h-84z" />
<glyph unicode="&#xde;" horiz-adv-x="960" d="M142 0v1395h136v-315h140q173 0 271 -25t163 -118t65 -240q0 -189 -97.5 -284t-293.5 -95h-248v-318h-136zM278 953v-516h248q131 0 190 64t59 196q0 115 -63 185.5t-186 70.5h-248z" />
<glyph unicode="&#xdf;" horiz-adv-x="896" d="M121 601q0 437 11 545t98 190t214 82q126 0 213 -86.5t87 -220.5q0 -224 -232 -322q164 -14 246 -117.5t82 -256.5q0 -182 -108 -309.5t-268 -127.5q-66 0 -122 22v120q60 -28 118 -28q112 0 185.5 91.5t73.5 227.5q0 143 -83.5 224t-212.5 81h-81v112q110 0 192 60.5 t82 191.5q0 102 -53 162t-137 60q-86 0 -134.5 -65t-48.5 -174v-1063h-122v601z" />
<glyph unicode="&#xe0;" d="M67 264q0 127 95.5 211t411.5 114v82q0 81 -52.5 133.5t-130.5 52.5q-111 0 -252 -110v143q153 85 257 85q150 0 227 -87q77 -88 77 -236v-503q0 -55 52 -55q27 0 54 15v-109q-48 -22 -98 -22q-130 0 -134 153q-49 -76 -109 -114.5t-130 -38.5q-114 0 -191 83t-77 203z M196 268q0 -76 48 -125.5t121 -49.5q91 0 150 76t59 195v127q-247 -30 -312.5 -84.5t-65.5 -138.5zM254 1384h147l150 -293h-83z" />
<glyph unicode="&#xe1;" d="M67 264q0 127 95.5 211t411.5 114v82q0 81 -52.5 133.5t-130.5 52.5q-111 0 -252 -110v143q153 85 257 85q150 0 227 -87q77 -88 77 -236v-503q0 -55 52 -55q27 0 54 15v-109q-48 -22 -98 -22q-130 0 -134 153q-49 -76 -109 -114.5t-130 -38.5q-114 0 -191 83t-77 203z M196 268q0 -76 48 -125.5t121 -49.5q91 0 150 76t59 195v127q-247 -30 -312.5 -84.5t-65.5 -138.5zM324 1090l150 293h149l-215 -293h-84z" />
<glyph unicode="&#xe2;" d="M67 264q0 127 95.5 211t411.5 114v82q0 81 -52.5 133.5t-130.5 52.5q-111 0 -252 -110v143q153 85 257 85q150 0 227 -87q77 -88 77 -236v-503q0 -55 52 -55q27 0 54 15v-109q-48 -22 -98 -22q-130 0 -134 153q-49 -76 -109 -114.5t-130 -38.5q-114 0 -191 83t-77 203z M196 268q0 -76 48 -125.5t121 -49.5q91 0 150 76t59 195v127q-247 -30 -312.5 -84.5t-65.5 -138.5zM197 1090l147 293h192l148 -293h-86l-159 222l-161 -222h-81z" />
<glyph unicode="&#xe3;" d="M67 264q0 127 95.5 211t411.5 114v82q0 81 -52.5 133.5t-130.5 52.5q-111 0 -252 -110v143q153 85 257 85q150 0 227 -87q77 -88 77 -236v-503q0 -55 52 -55q27 0 54 15v-109q-48 -22 -98 -22q-130 0 -134 153q-49 -76 -109 -114.5t-130 -38.5q-114 0 -191 83t-77 203z M150 1135q5 217 158 217q74 0 140 -76q45 -52 79 -52q60 0 60 118h95q0 -221 -154 -221q-70 0 -144 79q-48 51 -78 51q-61 0 -61 -116h-95zM196 268q0 -76 48 -125.5t121 -49.5q91 0 150 76t59 195v127q-247 -30 -312.5 -84.5t-65.5 -138.5z" />
<glyph unicode="&#xe4;" d="M67 264q0 127 95.5 211t411.5 114v82q0 81 -52.5 133.5t-130.5 52.5q-111 0 -252 -110v143q153 85 257 85q150 0 227 -87q77 -88 77 -236v-503q0 -55 52 -55q27 0 54 15v-109q-48 -22 -98 -22q-130 0 -134 153q-49 -76 -109 -114.5t-130 -38.5q-114 0 -191 83t-77 203z M193 1233q0 130 73 130q74 0 74 -126q0 -127 -75 -127q-72 0 -72 123zM196 268q0 -76 48 -125.5t121 -49.5q91 0 150 76t59 195v127q-247 -30 -312.5 -84.5t-65.5 -138.5zM490 1237q0 124 74 124q75 0 75 -124q0 -128 -73 -128q-76 0 -76 128z" />
<glyph unicode="&#xe5;" d="M67 264q0 127 95.5 211t411.5 114v82q0 81 -52.5 133.5t-130.5 52.5q-111 0 -252 -110v143q153 85 257 85q150 0 227 -87q77 -88 77 -236v-503q0 -55 52 -55q27 0 54 15v-109q-48 -22 -98 -22q-130 0 -134 153q-49 -76 -109 -114.5t-130 -38.5q-114 0 -191 83t-77 203z M196 268q0 -76 48 -125.5t121 -49.5q91 0 150 76t59 195v127q-247 -30 -312.5 -84.5t-65.5 -138.5zM268 1235q0 61 43.5 104.5t105.5 43.5q59 0 103.5 -42.5t44.5 -105.5q0 -62 -43.5 -105.5t-104.5 -43.5q-62 0 -105.5 43.5t-43.5 105.5zM341 1236q0 -31 22 -53t54 -22 q31 0 53 22t22 53t-22 53t-53 22q-32 0 -54 -22t-22 -53z" />
<glyph unicode="&#xe6;" horiz-adv-x="1301" d="M58 267q0 104 57.5 172t159 100t269.5 49v48q0 110 -45 165t-136 55q-55 0 -103 -22t-127 -84v143q148 82 245 82q90 0 145.5 -33.5t116.5 -122.5q122 156 278 156q148 0 237.5 -112.5t89.5 -285.5v-63h-579v-49q0 -180 77 -276t178 -96q150 0 294 155v-150 q-152 -120 -302 -120q-102 0 -182.5 57t-140.5 170q-41 -113 -107 -170t-157 -57q-113 0 -190.5 82.5t-77.5 206.5zM188 271q0 -78 45 -129t111 -51q85 0 142.5 79t57.5 186v131q-192 -19 -274 -63t-82 -153zM679 623h432q-8 118 -56 177t-136 59q-179 0 -240 -236z" />
<glyph unicode="&#xe7;" horiz-adv-x="725" d="M67 466q0 220 117 364.5t290 144.5q100 0 204 -60v-139q-101 81 -195 81q-122 0 -205 -109t-83 -274q0 -150 75 -264t202 -114q93 0 206 82v-135q-117 -66 -208 -66q-7 0 -20 1v-101h49q75 0 124 -45t49 -110q0 -79 -67.5 -133t-165.5 -54q-73 0 -147 26v106 q73 -40 136 -40q51 0 90 23t39 60q0 34 -30.5 52t-65.5 18h-111v214q-130 43 -206.5 172t-76.5 300z" />
<glyph unicode="&#xe8;" d="M63 470q0 226 108.5 365.5t274.5 139.5q147 0 236 -112.5t89 -284.5v-62h-579v-49q0 -186 77.5 -281t181.5 -95q144 0 289 159v-150q-152 -122 -297 -122q-170 0 -275 136.5t-105 355.5zM205 623h432q-4 119 -61 178.5t-133 59.5q-77 0 -143.5 -59.5t-94.5 -178.5z M254 1384h147l150 -293h-83z" />
<glyph unicode="&#xe9;" d="M63 470q0 226 108.5 365.5t274.5 139.5q147 0 236 -112.5t89 -284.5v-62h-579v-49q0 -186 77.5 -281t181.5 -95q144 0 289 159v-150q-152 -122 -297 -122q-170 0 -275 136.5t-105 355.5zM205 623h432q-4 119 -61 178.5t-133 59.5q-77 0 -143.5 -59.5t-94.5 -178.5z M325 1090l150 293h149l-215 -293h-84z" />
<glyph unicode="&#xea;" d="M63 470q0 226 108.5 365.5t274.5 139.5q147 0 236 -112.5t89 -284.5v-62h-579v-49q0 -186 77.5 -281t181.5 -95q144 0 289 159v-150q-152 -122 -297 -122q-170 0 -275 136.5t-105 355.5zM197 1090l147 293h192l148 -293h-86l-159 222l-161 -222h-81zM205 623h432 q-4 119 -61 178.5t-133 59.5q-77 0 -143.5 -59.5t-94.5 -178.5z" />
<glyph unicode="&#xeb;" d="M63 470q0 226 108.5 365.5t274.5 139.5q147 0 236 -112.5t89 -284.5v-62h-579v-49q0 -186 77.5 -281t181.5 -95q144 0 289 159v-150q-152 -122 -297 -122q-170 0 -275 136.5t-105 355.5zM205 623h432q-4 119 -61 178.5t-133 59.5q-77 0 -143.5 -59.5t-94.5 -178.5z M218 1233q0 130 73 130q74 0 74 -126q0 -127 -75 -127q-72 0 -72 123zM515 1237q0 124 74 124q75 0 75 -124q0 -128 -73 -128q-76 0 -76 128z" />
<glyph unicode="&#xec;" horiz-adv-x="341" d="M8 1384h147l150 -293h-83zM110 0v953h125v-953h-125z" />
<glyph unicode="&#xed;" horiz-adv-x="341" d="M79 1090l150 293h149l-215 -293h-84zM110 0v953h125v-953h-125z" />
<glyph unicode="&#xee;" horiz-adv-x="341" d="M-61 1090l147 293h192l148 -293h-86l-159 222l-161 -222h-81zM110 0v953h125v-953h-125z" />
<glyph unicode="&#xef;" horiz-adv-x="341" d="M-52 1233q0 130 73 130q74 0 74 -126q0 -127 -75 -127q-72 0 -72 123zM110 0v953h125v-953h-125zM245 1237q0 124 74 124q75 0 75 -124q0 -128 -73 -128q-76 0 -76 128z" />
<glyph unicode="&#xf0;" horiz-adv-x="896" d="M73 477q0 224 103 361t257 137q67 0 123 -30t101 -91q-42 160 -139 325l-201 -95l-43 95l190 89q-33 59 -86 127h140q32 -31 56 -73l164 73l46 -92l-155 -72q198 -335 198 -663q0 -239 -107 -414.5t-282 -175.5q-168 0 -266.5 142.5t-98.5 356.5zM200 465 q0 -157 64.5 -265.5t175.5 -108.5q103 0 168.5 97.5t65.5 289.5q0 181 -63 281t-157 100q-127 0 -190.5 -105.5t-63.5 -288.5z" />
<glyph unicode="&#xf1;" horiz-adv-x="853" d="M111 0v953h113l12 -136q50 79 113.5 118.5t140.5 39.5q122 0 190 -82t68 -219v-674h-127v674q0 84 -44 134t-114 50q-95 0 -161 -83.5t-66 -192.5v-582h-125zM183 1135q5 217 158 217q74 0 140 -76q45 -52 79 -52q60 0 60 118h95q0 -221 -154 -221q-70 0 -144 79 q-48 51 -78 51q-61 0 -61 -116h-95z" />
<glyph unicode="&#xf2;" horiz-adv-x="875" d="M67 472q0 169 62 292t151.5 167t159.5 44q157 0 262 -136.5t105 -361.5q0 -130 -41.5 -245.5t-128.5 -184.5t-202 -69q-171 0 -269.5 141t-98.5 353zM197 462q0 -157 62 -263t174 -106q106 0 174.5 98.5t68.5 287.5q0 180 -67 279t-161 99q-125 0 -188 -106t-63 -289z M273 1384h147l150 -293h-83z" />
<glyph unicode="&#xf3;" horiz-adv-x="875" d="M67 472q0 169 62 292t151.5 167t159.5 44q157 0 262 -136.5t105 -361.5q0 -130 -41.5 -245.5t-128.5 -184.5t-202 -69q-171 0 -269.5 141t-98.5 353zM197 462q0 -157 62 -263t174 -106q106 0 174.5 98.5t68.5 287.5q0 180 -67 279t-161 99q-125 0 -188 -106t-63 -289z M332 1090l150 293h149l-215 -293h-84z" />
<glyph unicode="&#xf4;" horiz-adv-x="875" d="M67 472q0 169 62 292t151.5 167t159.5 44q157 0 262 -136.5t105 -361.5q0 -130 -41.5 -245.5t-128.5 -184.5t-202 -69q-171 0 -269.5 141t-98.5 353zM197 462q0 -157 62 -263t174 -106q106 0 174.5 98.5t68.5 287.5q0 180 -67 279t-161 99q-125 0 -188 -106t-63 -289z M204 1090l147 293h192l148 -293h-86l-159 222l-161 -222h-81z" />
<glyph unicode="&#xf5;" horiz-adv-x="875" d="M67 472q0 169 62 292t151.5 167t159.5 44q157 0 262 -136.5t105 -361.5q0 -130 -41.5 -245.5t-128.5 -184.5t-202 -69q-171 0 -269.5 141t-98.5 353zM170 1135q5 217 158 217q74 0 140 -76q45 -52 79 -52q60 0 60 118h95q0 -221 -154 -221q-70 0 -144 79q-48 51 -78 51 q-61 0 -61 -116h-95zM197 462q0 -157 62 -263t174 -106q106 0 174.5 98.5t68.5 287.5q0 180 -67 279t-161 99q-125 0 -188 -106t-63 -289z" />
<glyph unicode="&#xf6;" horiz-adv-x="875" d="M67 472q0 169 62 292t151.5 167t159.5 44q157 0 262 -136.5t105 -361.5q0 -130 -41.5 -245.5t-128.5 -184.5t-202 -69q-171 0 -269.5 141t-98.5 353zM197 462q0 -157 62 -263t174 -106q106 0 174.5 98.5t68.5 287.5q0 180 -67 279t-161 99q-125 0 -188 -106t-63 -289z M225 1233q0 130 73 130q74 0 74 -126q0 -127 -75 -127q-72 0 -72 123zM522 1237q0 124 74 124q75 0 75 -124q0 -128 -73 -128q-76 0 -76 128z" />
<glyph unicode="&#xf7;" horiz-adv-x="1365" d="M143 614v105h1080v-105h-1080zM607 256q0 33 22 54t52 21t51.5 -21.5t21.5 -51.5q0 -29 -21.5 -50.5t-51.5 -21.5q-32 0 -53 22t-21 48zM608 1077q0 30 22 50t50 20q30 0 51 -21t21 -51t-21 -51t-52 -21q-32 0 -51.5 23t-19.5 51z" />
<glyph unicode="&#xf8;" horiz-adv-x="875" d="M67 472q0 233 108.5 368t264.5 135q74 0 147 -36l47 106h110l-73 -169q136 -147 136 -399q0 -210 -98 -354.5t-274 -144.5q-76 0 -143 32l-47 -106h-115l75 169q-138 130 -138 399zM197 470q0 -164 63 -272l279 632q-50 28 -98 28q-109 0 -176.5 -101t-67.5 -287z M339 118q45 -25 91 -25q105 0 175.5 97.5t70.5 288.5q0 165 -61 270z" />
<glyph unicode="&#xf9;" horiz-adv-x="853" d="M103 283v670h124v-670q0 -95 40 -142.5t120 -47.5q100 0 163.5 84.5t63.5 217.5v558h125v-953h-125v131q-53 -76 -116 -114.5t-136 -38.5q-122 0 -190.5 83t-68.5 222zM252 1384h147l150 -293h-83z" />
<glyph unicode="&#xfa;" horiz-adv-x="853" d="M103 283v670h124v-670q0 -95 40 -142.5t120 -47.5q100 0 163.5 84.5t63.5 217.5v558h125v-953h-125v131q-53 -76 -116 -114.5t-136 -38.5q-122 0 -190.5 83t-68.5 222zM323 1090l150 293h149l-215 -293h-84z" />
<glyph unicode="&#xfb;" horiz-adv-x="853" d="M103 283v670h124v-670q0 -95 40 -142.5t120 -47.5q100 0 163.5 84.5t63.5 217.5v558h125v-953h-125v131q-53 -76 -116 -114.5t-136 -38.5q-122 0 -190.5 83t-68.5 222zM196 1090l147 293h192l148 -293h-86l-159 222l-161 -222h-81z" />
<glyph unicode="&#xfc;" horiz-adv-x="853" d="M103 283v670h124v-670q0 -95 40 -142.5t120 -47.5q100 0 163.5 84.5t63.5 217.5v558h125v-953h-125v131q-53 -76 -116 -114.5t-136 -38.5q-122 0 -190.5 83t-68.5 222zM204 1233q0 130 73 130q74 0 74 -126q0 -127 -75 -127q-72 0 -72 123zM501 1237q0 124 74 124 q75 0 75 -124q0 -128 -73 -128q-76 0 -76 128z" />
<glyph unicode="&#xfd;" horiz-adv-x="725" d="M9 953h139l235 -798l205 798h135l-320 -1111q-51 -178 -105 -243t-156 -65q-36 0 -77 22v117q42 -13 69 -13q56 0 90 49.5t78 203.5l21 76zM271 1090l150 293h149l-215 -293h-84z" />
<glyph unicode="&#xfe;" horiz-adv-x="875" d="M120 -444v1839h125v-582q49 81 108 121.5t128 40.5q150 0 244 -142t94 -345q0 -220 -106 -365t-260 -145q-58 0 -99.5 22.5t-108.5 84.5v-529h-125zM245 203q44 -54 89.5 -81.5t92.5 -27.5q114 0 186.5 108t72.5 282q0 158 -63 266.5t-168 108.5q-95 0 -152.5 -89.5 t-57.5 -209.5v-357z" />
<glyph unicode="&#xff;" horiz-adv-x="725" d="M9 953h139l235 -798l205 798h135l-320 -1111q-51 -178 -105 -243t-156 -65q-36 0 -77 22v117q42 -13 69 -13q56 0 90 49.5t78 203.5l21 76zM152 1233q0 130 73 130q74 0 74 -126q0 -127 -75 -127q-72 0 -72 123zM449 1237q0 124 74 124q75 0 75 -124q0 -128 -73 -128 q-76 0 -76 128z" />
<glyph unicode="&#x152;" horiz-adv-x="1600" d="M68 707q0 190 55.5 361.5t164 260.5t239.5 89q101 0 177.5 -48t127.5 -145v170h679v-118h-542v-490h509v-115h-509v-553h542v-119h-679v159q-65 -90 -143.5 -135.5t-169.5 -45.5q-194 0 -322.5 186t-128.5 543zM208 663q0 -259 88.5 -410.5t225.5 -151.5q143 0 227 161.5 t84 432.5q0 182 -39.5 322t-114.5 207t-149 67q-158 0 -240 -163.5t-82 -464.5z" />
<glyph unicode="&#x153;" horiz-adv-x="1429" d="M70 475q0 225 102.5 362.5t270.5 137.5q91 0 164.5 -51.5t129.5 -155.5q119 207 311 207q154 0 241.5 -119t87.5 -311v-29h-581v-71q0 -167 79.5 -259.5t178.5 -92.5q139 0 289 158v-153q-154 -120 -295 -120q-104 0 -182 50.5t-129 150.5q-63 -100 -138 -150.5 t-162 -50.5q-175 0 -271 143.5t-96 353.5zM197 461q0 -155 62 -261.5t175 -106.5q115 0 177.5 108.5t62.5 259.5q0 177 -60 286.5t-176 109.5q-106 0 -173.5 -106t-67.5 -290zM810 621h432q-11 120 -59.5 180t-134.5 60q-176 0 -238 -240z" />
<glyph unicode="&#x178;" d="M8 1395h158l256 -617l245 617h156l-335 -756v-639h-137v639zM201 1635q0 130 73 130q74 0 74 -126q0 -127 -75 -127q-72 0 -72 123zM498 1639q0 124 74 124q75 0 75 -124q0 -128 -73 -128q-76 0 -76 128z" />
<glyph unicode="&#x2c6;" horiz-adv-x="683" d="M98 1090l147 293h192l148 -293h-86l-159 222l-161 -222h-81z" />
<glyph unicode="&#x2dc;" horiz-adv-x="683" d="M76 1135q5 217 158 217q74 0 140 -76q45 -52 79 -52q60 0 60 118h95q0 -221 -154 -221q-70 0 -144 79q-48 51 -78 51q-61 0 -61 -116h-95z" />
<glyph unicode="&#x2013;" horiz-adv-x="1024" d="M-21 490v61h1066v-61h-1066z" />
<glyph unicode="&#x2014;" horiz-adv-x="2048" d="M-22 489v63h2091v-63h-2091z" />
<glyph unicode="&#x2018;" horiz-adv-x="427" d="M98 1044q0 162 112 351h69q-61 -127 -69 -240q76 -37 76 -115q0 -65 -29.5 -104.5t-69.5 -39.5t-64.5 42.5t-24.5 105.5z" />
<glyph unicode="&#x2019;" horiz-adv-x="427" d="M140 1275q0 62 28.5 102.5t70.5 40.5q39 0 64 -43t25 -106q0 -81 -28 -168.5t-84 -182.5h-69q60 128 69 244q-38 19 -57 47t-19 66z" />
<glyph unicode="&#x201a;" horiz-adv-x="427" d="M140 96q0 65 29.5 105t69.5 40t64.5 -43t24.5 -107q0 -81 -28 -169.5t-84 -184.5h-69q60 128 69 244q-38 19 -57 47.5t-19 67.5z" />
<glyph unicode="&#x201c;" horiz-adv-x="747" d="M98 1044q0 162 112 351h69q-61 -127 -69 -240q76 -37 76 -115q0 -65 -29.5 -104.5t-69.5 -39.5t-64.5 42.5t-24.5 105.5zM418 1044q0 162 112 351h69q-61 -127 -69 -240q76 -38 76 -116q0 -63 -28.5 -103.5t-70.5 -40.5q-40 0 -64.5 43.5t-24.5 105.5z" />
<glyph unicode="&#x201d;" horiz-adv-x="747" d="M140 1275q0 62 28.5 102.5t70.5 40.5q40 0 64.5 -43t24.5 -106q0 -81 -28 -168.5t-84 -182.5h-69q60 128 69 243q-38 19 -57 47.5t-19 66.5zM460 1274q0 64 29 104t70 40q40 0 64.5 -43t24.5 -106q0 -81 -28 -168.5t-84 -182.5h-69q61 127 69 241q-38 19 -57 47.5 t-19 67.5z" />
<glyph unicode="&#x201e;" horiz-adv-x="747" d="M140 99q0 65 29.5 104.5t69.5 39.5t64.5 -43.5t24.5 -105.5q0 -158 -112 -354h-69q60 128 69 243q-76 38 -76 116zM460 96q0 64 28.5 104t70.5 40q40 0 64.5 -43t24.5 -105q0 -157 -112 -352h-69q60 126 69 240q-76 38 -76 116z" />
<glyph unicode="&#x2022;" horiz-adv-x="1024" d="M263 716q0 103 73 176.5t176 73.5q107 0 178 -76t71 -168q0 -112 -74 -184.5t-175 -72.5q-104 0 -176.5 74t-72.5 177z" />
<glyph unicode="&#x2026;" horiz-adv-x="2048" d="M270 112q0 63 25 95t59 32q40 0 63 -34t23 -89q0 -127 -85 -127q-40 0 -62.5 34.5t-22.5 88.5zM952 114q0 58 24 92t61 34q38 0 62.5 -34t24.5 -90q0 -55 -24 -91t-62 -36q-40 0 -63 36t-23 89zM1636 122q0 57 25 89t61 32q38 0 62.5 -33.5t24.5 -86.5q0 -54 -24.5 -88.5 t-62.5 -34.5q-40 0 -63 34.5t-23 87.5z" />
<glyph unicode="&#x2039;" horiz-adv-x="341" d="M82 474l108 315h102l-102 -315l102 -317h-102z" />
<glyph unicode="&#x203a;" horiz-adv-x="341" d="M50 157l102 315l-102 317h102l108 -317l-108 -315h-102z" />
<glyph unicode="&#x2122;" horiz-adv-x="1920" d="M202 1311v84h636v-84h-268v-729h-102v729h-266zM932 582v813h153l204 -649l213 649h155v-813h-91v729l-243 -729h-69l-230 729v-729h-92z" />
<glyph unicode="&#xe000;" horiz-adv-x="955" d="M0 955h955v-955h-955v955z" />
<glyph unicode="&#xfb01;" horiz-adv-x="768" d="M4 843v110h129v215q0 125 49 187.5t147 62.5q49 0 112 -23v-115q-50 22 -86 22q-43 0 -70 -27.5t-27 -71.5v-250h183v-110h-183v-843h-125v843h-129zM526 1258q0 117 75 117q74 0 74 -113q0 -119 -76 -119q-73 0 -73 115zM537 0v953h125v-953h-125z" />
<glyph unicode="&#xfb02;" horiz-adv-x="768" d="M4 843v110h129v215q0 125 49 187.5t147 62.5q49 0 112 -23v-115q-50 22 -86 22q-43 0 -70 -27.5t-27 -71.5v-250h183v-110h-183v-843h-125v843h-129zM536 0v1395h126v-1395h-126z" />
<glyph unicode="&#xfb03;" horiz-adv-x="1195" d="M4 843v110h129v215q0 125 49 187.5t147 62.5q49 0 112 -23v-115q-50 22 -86 22q-43 0 -70 -27.5t-27 -71.5v-250h183v-110h-183v-843h-125v843h-129zM431 843v110h129v215q0 125 49 187.5t147 62.5q49 0 112 -23v-115q-50 22 -86 22q-43 0 -70 -27.5t-27 -71.5v-250h183 v-110h-183v-843h-125v843h-129zM953 1258q0 117 75 117q74 0 74 -113q0 -119 -76 -119q-73 0 -73 115zM964 0v953h125v-953h-125z" />
<glyph unicode="&#xfb04;" horiz-adv-x="1195" d="M4 843v110h129v215q0 125 49 187.5t147 62.5q49 0 112 -23v-115q-50 22 -86 22q-43 0 -70 -27.5t-27 -71.5v-250h183v-110h-183v-843h-125v843h-129zM431 843v110h129v215q0 125 49 187.5t147 62.5q49 0 112 -23v-115q-50 22 -86 22q-43 0 -70 -27.5t-27 -71.5v-250h183 v-110h-183v-843h-125v843h-129zM963 0v1395h126v-1395h-126z" />
</font>
</defs>
</svg>
